<svg width="90" height="90" viewBox="0 0 90 90" fill="none" xmlns="http://www.w3.org/2000/svg">
<circle cx="45" cy="45" r="40" stroke="#26028B" stroke-width="10"/>
<path d="M38.0548 59.6839C38.0548 59.8774 37.8323 60.0322 37.5516 60.0322C37.2323 60.0613 37.0097 59.9064 37.0097 59.6839C37.0097 59.4903 37.2323 59.3355 37.5129 59.3355C37.8032 59.3064 38.0548 59.4613 38.0548 59.6839ZM35.0452 59.2484C34.9774 59.4419 35.171 59.6645 35.4613 59.7226C35.7129 59.8193 36.0032 59.7226 36.0613 59.529C36.1194 59.3355 35.9355 59.1129 35.6452 59.0258C35.3935 58.9581 35.1129 59.0548 35.0452 59.2484ZM39.3226 59.0839C39.0419 59.1516 38.8484 59.3355 38.8774 59.5581C38.9065 59.7516 39.1581 59.8774 39.4484 59.8097C39.729 59.7419 39.9226 59.5581 39.8935 59.3645C39.8645 59.1806 39.6032 59.0548 39.3226 59.0839ZM45.6903 22C32.2677 22 22 32.1903 22 45.6129C22 56.3452 28.7548 65.529 38.4032 68.7613C39.6419 68.9839 40.0774 68.2193 40.0774 67.5903C40.0774 66.9903 40.0484 63.6806 40.0484 61.6484C40.0484 61.6484 33.2742 63.1 31.8516 58.7645C31.8516 58.7645 30.7484 55.9484 29.1613 55.2226C29.1613 55.2226 26.9452 53.7032 29.3161 53.7323C29.3161 53.7323 31.7258 53.9258 33.0516 56.229C35.171 59.9645 38.7226 58.8903 40.1065 58.2516C40.329 56.7032 40.9581 55.629 41.6548 54.9903C36.2452 54.3903 30.7871 53.6064 30.7871 44.2968C30.7871 41.6355 31.5226 40.3 33.071 38.5968C32.8194 37.9677 31.9968 35.3742 33.3226 32.0258C35.3452 31.3968 40 34.6387 40 34.6387C41.9355 34.0968 44.0161 33.8161 46.0774 33.8161C48.1387 33.8161 50.2194 34.0968 52.1548 34.6387C52.1548 34.6387 56.8097 31.3871 58.8323 32.0258C60.1581 35.3839 59.3355 37.9677 59.0839 38.5968C60.6323 40.3097 61.5806 41.6452 61.5806 44.2968C61.5806 53.6355 55.8806 54.3806 50.471 54.9903C51.3613 55.7548 52.1161 57.2064 52.1161 59.4806C52.1161 62.7419 52.0871 66.7774 52.0871 67.571C52.0871 68.2 52.5323 68.9645 53.7613 68.7419C63.4387 65.529 70 56.3452 70 45.6129C70 32.1903 59.1129 22 45.6903 22ZM31.4065 55.3774C31.2806 55.4742 31.3097 55.6968 31.4742 55.8806C31.629 56.0355 31.8516 56.1032 31.9774 55.9774C32.1032 55.8806 32.0742 55.6581 31.9097 55.4742C31.7548 55.3193 31.5323 55.2516 31.4065 55.3774ZM30.3613 54.5935C30.2935 54.7193 30.3903 54.8742 30.5839 54.971C30.7387 55.0677 30.9323 55.0387 31 54.9032C31.0677 54.7774 30.971 54.6226 30.7774 54.5258C30.5839 54.4677 30.429 54.4968 30.3613 54.5935ZM33.4968 58.0387C33.3419 58.1645 33.4 58.4548 33.6226 58.6387C33.8452 58.8613 34.1258 58.8903 34.2516 58.7355C34.3774 58.6097 34.3194 58.3193 34.1258 58.1355C33.9129 57.9129 33.6226 57.8839 33.4968 58.0387ZM32.3935 56.6161C32.2387 56.7129 32.2387 56.9645 32.3935 57.1871C32.5484 57.4097 32.8097 57.5064 32.9355 57.4097C33.0903 57.2839 33.0903 57.0323 32.9355 56.8097C32.8 56.5871 32.5484 56.4903 32.3935 56.6161Z" fill="#26028B"/>
</svg>
