<svg width="90" height="90" viewBox="0 0 90 90" fill="none" xmlns="http://www.w3.org/2000/svg">
<circle cx="45" cy="45" r="40" stroke="#26028B" stroke-width="10"/>
<path d="M44.505 32.9626C38.1202 32.9626 32.9702 38.1137 32.9702 44.5C32.9702 50.8863 38.1202 56.0374 44.505 56.0374C50.8898 56.0374 56.0399 50.8863 56.0399 44.5C56.0399 38.1137 50.8898 32.9626 44.505 32.9626ZM44.505 52.0008C40.379 52.0008 37.0059 48.637 37.0059 44.5C37.0059 40.363 40.3689 36.9992 44.505 36.9992C48.6411 36.9992 52.0042 40.363 52.0042 44.5C52.0042 48.637 48.6311 52.0008 44.505 52.0008ZM59.2022 32.4906C59.2022 33.9868 57.9975 35.1817 56.5117 35.1817C55.0159 35.1817 53.8212 33.9767 53.8212 32.4906C53.8212 31.0045 55.0259 29.7996 56.5117 29.7996C57.9975 29.7996 59.2022 31.0045 59.2022 32.4906ZM66.8419 35.2219C66.6712 31.617 65.848 28.4239 63.2078 25.7931C60.5775 23.1623 57.3851 22.3389 53.7811 22.1582C50.0666 21.9473 38.9334 21.9473 35.2189 22.1582C31.6249 22.3289 28.4325 23.1522 25.7922 25.7831C23.152 28.4139 22.3388 31.607 22.1581 35.2118C21.9473 38.9271 21.9473 50.0629 22.1581 53.7781C22.3288 57.383 23.152 60.5761 25.7922 63.2069C28.4325 65.8377 31.6149 66.6611 35.2189 66.8418C38.9334 67.0527 50.0666 67.0527 53.7811 66.8418C57.3851 66.6711 60.5775 65.8478 63.2078 63.2069C65.838 60.5761 66.6612 57.383 66.8419 53.7781C67.0527 50.0629 67.0527 38.9371 66.8419 35.2219ZM62.0432 57.7645C61.2602 59.7326 59.7443 61.2489 57.7666 62.0421C54.8051 63.2169 47.7777 62.9458 44.505 62.9458C41.2323 62.9458 34.1949 63.2069 31.2434 62.0421C29.2758 61.2589 27.7599 59.7427 26.9668 57.7645C25.7922 54.8024 26.0633 47.7735 26.0633 44.5C26.0633 41.2265 25.8023 34.1876 26.9668 31.2355C27.7499 29.2674 29.2658 27.7511 31.2434 26.9579C34.205 25.7831 41.2323 26.0542 44.505 26.0542C47.7777 26.0542 54.8151 25.7931 57.7666 26.9579C59.7342 27.7411 61.2501 29.2573 62.0432 31.2355C63.2178 34.1976 62.9467 41.2265 62.9467 44.5C62.9467 47.7735 63.2178 54.8124 62.0432 57.7645Z" fill="#26028B"/>
</svg>
