<svg width="90" height="90" viewBox="0 0 90 90" fill="none" xmlns="http://www.w3.org/2000/svg">
<circle cx="45" cy="45" r="40" stroke="#26028B" stroke-width="10"/>
<path d="M35.0073 63.2391H26.6647V36.3735H35.0073V63.2391ZM30.8315 32.7088C28.1638 32.7088 26 30.4992 26 27.8315C26 26.5501 26.509 25.3212 27.4151 24.4151C28.3212 23.509 29.5501 23 30.8315 23C32.1129 23 33.3418 23.509 34.2479 24.4151C35.154 25.3212 35.663 26.5501 35.663 27.8315C35.663 30.4992 33.4983 32.7088 30.8315 32.7088ZM66.231 63.2391H57.9064V50.1611C57.9064 47.0443 57.8435 43.0472 53.5689 43.0472C49.2314 43.0472 48.5667 46.4335 48.5667 49.9365V63.2391H40.2331V36.3735H48.2344V40.0382H48.3512C49.465 37.9274 52.1856 35.6998 56.2447 35.6998C64.6879 35.6998 66.24 41.2598 66.24 48.4814V63.2391H66.231Z" fill="#26028B"/>
</svg>
